<?xml version="1.0" encoding="utf-8"?>
<!-- Generator: Adobe Illustrator 21.1.0, SVG Export Plug-In . SVG Version: 6.00 Build 0)  -->
<svg version="1.1" id="Capa_1" xmlns="http://www.w3.org/2000/svg" xmlns:xlink="http://www.w3.org/1999/xlink" x="0px" y="0px"
	 viewBox="0 0 512 512" style="enable-background:new 0 0 512 512;" xml:space="preserve">
<style type="text/css">
	.st0{fill:#7E7E7E;}
</style>
<g>
	<g>
		<path class="st0" d="M256,0C114.8,0,0,114.8,0,256s114.8,256,256,256s256-114.8,256-256S397.2,0,256,0z M256,457.5
			c-111.1,0-201.5-90.4-201.5-201.5S144.9,54.5,256,54.5S457.5,144.9,457.5,256S367.1,457.5,256,457.5z"/>
		<path class="st0" d="M389.4,248.1h-115V109.8c0-11.6-9.4-21.1-21.1-21.1s-21.1,9.4-21.1,21.1v159.4c0,11.6,9.4,21.1,21.1,21.1
			h136.1c11.6,0,21.1-9.4,21.1-21.1C410.5,257.5,401.1,248.1,389.4,248.1z"/>
	</g>
</g>
</svg>
