<?xml version="1.0" encoding="utf-8"?>
<!-- Generator: Adobe Illustrator 21.1.0, SVG Export Plug-In . SVG Version: 6.00 Build 0)  -->
<svg version="1.1" id="Слой_1" xmlns="http://www.w3.org/2000/svg" xmlns:xlink="http://www.w3.org/1999/xlink" x="0px" y="0px"
	 viewBox="0 0 492.1 492.1" style="enable-background:new 0 0 492.1 492.1;" xml:space="preserve">
<style type="text/css">
	.st0{fill:#FFFFFF;}
	.st1{fill:#FFFFFF;}
</style>
<g id="Capa_1">
	<path class="st0" d="M246,476.7c-61.8,0-119.8-24-163.5-67.7S14.8,307.2,14.8,245.5c0-61.8,24-119.8,67.7-163.5
		S184.3,14.2,246,14.2s119.8,24,163.5,67.7s67.7,101.7,67.7,163.5s-24,119.8-67.7,163.5C365.9,452.6,307.8,476.7,246,476.7z
		 M246,32.2c-117.6,0-213.2,95.6-213.2,213.2S128.4,458.6,246,458.6S459.2,363,459.2,245.4C459.3,127.9,363.6,32.2,246,32.2z"/>
</g>
<g id="Слой_2">
	<g>
		<path class="st1" d="M278,255.7c4.1,2.2,9.1,0.6,11.3-3.5s0.6-9.1-3.5-11.3c-4.3-2.3-8.9-4-13.6-5.2l-14.9,14.9
			C264.7,250.6,271.6,252.3,278,255.7z"/>
		<polygon class="st0" points="375.7,92.7 375.7,92.7 390.5,107.5 		"/>
		<path class="st1" d="M176.3,282.2l7.1-7.1C179.8,275.6,176.8,278.5,176.3,282.2z"/>
		<path class="st1" d="M199.7,314.7c8.3,23.9,31,41.1,57.6,41.1c9.9,0,19.8-2.4,28.5-7.1c4.1-2.2,5.6-7.2,3.5-11.3
			c-2.2-4.1-7.2-5.6-11.3-3.5c-6.4,3.4-13.4,5.1-20.7,5.1c-17.3,0-32.2-9.9-39.5-24.4h42c4.6,0,8.4-3.7,8.4-8.4
			c0-4.6-3.7-8.4-8.4-8.4h-46.6c-0.1-1-0.1-2.1-0.1-3.1l-19.8,19.8h6.4V314.7z"/>
		<path class="st0" d="M259.8,291.7c4.6,0,8.4-3.7,8.4-8.4c0-4.6-3.7-8.4-8.4-8.4l0,0H233l-16.7,16.7L259.8,291.7L259.8,291.7z"/>
		<path class="st0" d="M320.9,132.3c1.3-4,2.7-10,0.2-15.6c-3.3-7.3-11.9-8.1-18.1-8.1c-1.9,0-13.3,0.4-16.3,0.4
			c-7.6,0-16.5-0.6-24.8-4.8c-3.6-1.9-7-4.2-10.6-6.8c-5.4-3.8-11.1-7.8-17.7-9.9c-1.8-0.6-3.7-0.9-5.5-0.9
			c-12.5,0-20.1,14-22.6,18.5c-3.6,6.6-7.7,15.5-7.7,25.9c0,9.5,3.3,18.4,6.2,25c2.8,6.4,6,12.2,9.4,18c0.3,0.6,1.3,2.2,7.2,3.3
			c1.4,0.3,2.8,0.4,4.3,0.4l0,0c4.9,0,9.5-1.4,13.9-2.8c4.2-1.3,8.2-2.5,12.2-2.5h0.2c6,0.1,11.5,1.9,17.4,3.8
			c2.5,0.8,5.2,1.7,7.8,2.4c1.1,0.3,1.9,0,2.3-0.3c0.8-0.4,1.7-0.9,2.5-1.4l36.4-36.4C318.8,138.2,319.9,135.4,320.9,132.3z"/>
		<path class="st0" d="M183.5,275.1l87-87c-2-0.3-3.9-0.7-5.5-1.2c-5.1-1.7-10.5-3.6-16-3.2c-5,0.3-9.7,2.1-14.6,3.3
			c-5.5,1.3-10.7,1.7-16.3,0.6c0,0-7.5-1.1-25.3-14.3c-7.2-5.4-14.9-10.1-23.8-12.1c-8.5-1.8-12.1,11.1-3.6,13
			c8.1,1.8,14.8,6.4,21.4,11.2l0,0c-9.3,1.2-17.9,4.9-26.9,7.4c-8.4,2.3-4.8,15.3,3.6,13c9.1-2.5,18.1-6.8,27.6-7.3
			c1.5-0.1,3,0.1,4.4,0.4c-21.2,17.5-40.8,36.7-54.7,60.7c-12.1,20.8-17.5,44.9-10.2,68.3c0,0.1,0,0.1,0.1,0.2l45.7-45.7
			C176.8,278.5,179.8,275.6,183.5,275.1z"/>
		<path class="st0" d="M285.9,240.9c4.1,2.2,5.6,7.2,3.5,11.3c-2.1,4.1-7.2,5.6-11.3,3.5c-6.4-3.4-13.4-5.1-20.7-5.1L233,275h26.9
			l0,0c4.6,0,8.4,3.7,8.4,8.4c0,4.6-3.7,8.4-8.4,8.4h-43.6l-3.1,3.1c0,1,0,2.1,0.1,3.1h46.6c4.6,0,8.4,3.7,8.4,8.4
			c0,4.6-3.7,8.4-8.4,8.4h-42c7.3,14.5,22.3,24.4,39.5,24.4c7.3,0,14.3-1.7,20.7-5.1c4.1-2.2,9.1-0.6,11.3,3.5
			c2.2,4.1,0.6,9.1-3.5,11.3c-8.7,4.6-18.6,7.1-28.5,7.1c-26.7,0-49.4-17.2-57.6-41.1h-6.4l-44.9,44.9c1.3,1.6,2.6,3.1,4,4.7
			c8.3,9.3,17.6,17.6,28.6,23.4c19.9,10.5,43,14.7,65.3,15.6c23.9,1,48.4-2.3,70.4-11.9c20-8.7,37-23.9,44.1-45
			c9.4-27.8,1.1-58.7-12.5-83.6c-11.9-21.8-28.6-39.7-46.5-56.8l-29.7,29.7C277,236.9,281.5,238.6,285.9,240.9z"/>
		<polygon class="st0" points="375.7,92.7 279.3,189.2 225.7,242.8 205.3,263.1 193.4,275 178.9,289.5 133.3,335.2 94.2,374.2 
			109,389 144.1,354 183.5,314.6 223.1,275 246,252.1 263.8,234.2 296.8,201.2 390.5,107.5 		"/>
		<path class="st1" d="M205.3,263.1l20.3-20.3C217.4,247.8,210.4,254.8,205.3,263.1z"/>
		<polygon class="st0" points="193.4,275 193.4,275 178.9,289.5 178.9,289.5 		"/>
		<polygon class="st0" points="133.3,335.2 133.3,335.2 94.2,374.2 109,389 94.2,374.2 		"/>
		<polygon class="st0" points="178.9,289.5 178.9,289.5 133.3,335.2 133.3,335.2 		"/>
	</g>
</g>
</svg>
