<?xml version="1.0" encoding="utf-8"?>
<!-- Generator: Adobe Illustrator 21.1.0, SVG Export Plug-In . SVG Version: 6.00 Build 0)  -->
<svg version="1.1" id="Capa_1" xmlns="http://www.w3.org/2000/svg" xmlns:xlink="http://www.w3.org/1999/xlink" x="0px" y="0px"
	 viewBox="0 0 61 61" style="enable-background:new 0 0 61 61;" xml:space="preserve">
<style type="text/css">
	.st0{fill:#010002;}
</style>
<g>
	<g>
		<path class="st0" d="M28.6,4.2c-10.9,2-18.6,12.1-17.9,23.2c0,0.2,0,0.4,0.1,0.6c-0.4,2,0.4,4.3,2.7,5.3c3.8,1.5,8.1,3.9,9.6,8
			c1.5,4.4-1.8,9.1-4.5,12.2c-3.5,4.2,2.5,10.2,6,6c4.8-5.7,8.3-12,6.9-19.7c0-0.2-0.1-0.4-0.1-0.6c0.3-0.5,0.6-1,0.6-1.7
			c0.9-8.2,3.2-16.2,4-24.4c0.7-1.4,0.9-3,0.5-4.5C35.5,5.1,32.1,3.5,28.6,4.2z M26.1,31.1c-0.9-0.8-1.8-1.4-2.7-2.1
			c0.1-0.5,0.1-1,0.1-1.5c0-0.6,0-1.3,0-1.9c0-0.2,0-0.4,0.1-0.7c0-0.1,0-0.1,0-0.2c0.2-0.9,0.4-1.7,0.6-2.5
			c0.1-0.3,0.2-0.5,0.2-0.5c0.2-0.4,0.4-0.8,0.6-1.2c0.7-1.3,0.3-0.7,1.4-1.7c0.5-0.6,1.3-1,2.2-1.4C28,22,26.9,26.5,26.1,31.1z"/>
		<circle class="st0" cx="43.6" cy="6.7" r="6.7"/>
	</g>
</g>
</svg>
