<?xml version="1.0" encoding="utf-8"?>
<!-- Generator: Adobe Illustrator 21.1.0, SVG Export Plug-In . SVG Version: 6.00 Build 0)  -->
<svg version="1.1" id="Layer_1" xmlns="http://www.w3.org/2000/svg" xmlns:xlink="http://www.w3.org/1999/xlink" x="0px" y="0px"
	 viewBox="0 0 302.3 302.3" style="enable-background:new 0 0 302.3 302.3;" xml:space="preserve">
<style type="text/css">
	.st0{fill:#7E7E7E;}
</style>
<g id="XMLID_1246_">
	<g>
		<g>
			<path class="st0" d="M135.3,108.8L135.3,108.8c-18-4.6-7.5-1.9-29-7.4c-10.5-2.7-16.8-13.3-14.1-23.7
				c2.7-10.5,13.3-16.8,23.7-14.1c8.3,2.1,6.3,1.6,19.4,4.9V30.9c0-2.8-1.8-5.2-4.5-6L88.5,12.6h109.7v21.8
				c3.8-1.8,8.1-2.8,12.6-2.9V6.3c0-3.5-2.8-6.3-6.3-6.3H44.5c-3.5,0-6.3,2.9-6.3,6.3v229.6c0,2.7,1.8,5.2,4.5,6l84.5,24.7
				c1.9,0.5,3.9,0.2,5.5-1c1.6-1.2,2.5-3,2.5-5v-18.4h39v-12.6h-39L135.3,108.8L135.3,108.8z M117.4,165.2c0,3.5-2.8,6.3-6.3,6.3
				s-6.3-2.8-6.3-6.3v-36.3c0-3.5,2.8-6.3,6.3-6.3s6.3,2.8,6.3,6.3V165.2z"/>
			<path class="st0" d="M263.7,115c-0.1-10.4-8.8-24.4-24.6-24.5c0,0-44.4,0-54,0l-71.4-18.2c0,0,0,0,0,0
				c-5.2-1.3-10.5,1.6-12.3,6.6c-2.1,5.9,1.4,12.1,7.2,13.6c78.5,20,73.3,18.8,75.2,18.8c0,111.4-0.2,10.5-0.2,178.5
				c0,6.9,5.6,12.5,12.5,12.5s12.5-5.6,12.5-12.5v-99.7h5.4v99.7c0,6.9,5.6,12.5,12.5,12.5c6.9,0,12.5-5.6,12.5-12.5l0-174.7
				c0-1.1,0.9-2.1,2-2.1c1.1,0,2.1,0.9,2.1,2c0,0,0,0,0,0l0.4,76.4c0,5.7,4.7,10.3,10.4,10.3c0,0,0,0,0.1,0
				c5.7,0,10.4-4.7,10.3-10.4L263.7,115z"/>
			<path class="st0" d="M189.6,62.1c0,11.9,9.7,21.5,21.5,21.5c11.8,0,21.5-9.6,21.5-21.5c0-11.9-9.7-21.5-21.5-21.5
				C199.3,40.6,189.6,50.2,189.6,62.1z"/>
		</g>
	</g>
</g>
</svg>
