<?xml version="1.0" encoding="utf-8"?>
<!-- Generator: Adobe Illustrator 21.1.0, SVG Export Plug-In . SVG Version: 6.00 Build 0)  -->
<svg version="1.1" id="Capa_1" xmlns="http://www.w3.org/2000/svg" xmlns:xlink="http://www.w3.org/1999/xlink" x="0px" y="0px"
	 viewBox="0 0 79.5 79.5" style="enable-background:new 0 0 79.5 79.5;" xml:space="preserve">
<style type="text/css">
	.st0{fill:#7E7E7E;}
</style>
<g>
	<path class="st0" d="M40,8.1c0,4.5-3.6,8.2-8.2,8.2s-8.2-3.7-8.2-8.2S27.3,0,31.8,0S40,3.6,40,8.1z M32,74.3
		c-10.8,0-19.6-8.8-19.6-19.6c0-7.3,4-13.6,9.9-17v-5.9C13.5,35.6,7.2,44.4,7.2,54.7c0,13.7,11.1,24.8,24.8,24.8
		c9.1,0,17-5,21.3-12.3l-2.7-6.7C48.1,68.5,40.8,74.3,32,74.3z M68.4,62.4h-5.9c0,0-3.6-10.2-4.6-12.9c-0.6-1.8-2.3-3.1-4.3-3.1
		H39.3v-10h13.6c1.8,0,3.3-1.5,3.3-3.3s-1.5-3.3-3.3-3.3H39.3c0,0-0.8-11.9-7.5-11.9c-4.6,0-6.2,3.7-6.2,8.4v20.9
		c0,4.6,3.7,8.4,8.4,8.4c0.1,0,0.3-0.1,0.4-0.1c0.1,0,0.2,0.1,0.4,0.1h17.5L58,70.2h10.4c2.2,0,3.9-1.8,3.9-3.9
		C72.3,64.1,70.6,62.4,68.4,62.4z"/>
</g>
</svg>
