<?xml version="1.0" encoding="utf-8"?>
<!-- Generator: Adobe Illustrator 21.1.0, SVG Export Plug-In . SVG Version: 6.00 Build 0)  -->
<svg version="1.1" id="Capa_1" xmlns="http://www.w3.org/2000/svg" xmlns:xlink="http://www.w3.org/1999/xlink" x="0px" y="0px"
	 viewBox="0 0 192.5 192.5" style="enable-background:new 0 0 192.5 192.5;" xml:space="preserve">
<style type="text/css">
	.st0{fill:#7E7E7E;}
</style>
<g>
	<path class="st0" d="M149,24.2c-1.1-8.1-11.3-19.4-11.3-19.4c-2.7-6.5-9.5-4.4-9.5-4.4l-4.6,1.2c-4.5,1.3-4.3,7-2.4,8.1
		c0.9,0.5,3.4,0.6,4.1,0c0.2-0.2,0.1-1.1,0.1-1.1c4.8,0.3,5.2-2.4,5.2-2.4l1.6-0.3c1.6-0.9,2,2.8,2,2.8c-1.1,10.3,3.5,14.1,3.5,14.1
		c-0.7,2-3,1.6-3,1.6c-7.5-3.7-13,3.3-13,3.3c-4.2-3.4-12.9,2.7-12.9,2.7c-4.9,0.9-5.2-4.7-5.2-4.7s-0.2-3.6-0.4-3.9
		c-0.2-0.6,1-0.3,1-0.3c4.3-7.5,0-6.5,0-6.5c1-12.9-10.8-10.2-10.8-10.2c-9.1,2.4-5.8,11-5.8,11c-2-0.5-1,2.4-1,2.4
		c0.5,4.4,2.2,3.4,2.2,3.4c0.2,1.5,1.1,3.6,1.1,3.6l0.1,3.5c-1,5.8-7.4,1-7.4,1c-3.8-5.1-13.2-2.2-13.2-2.2c-4.9-6.9-12.6-3-12.6-3
		c0.8-1.7-0.1-10.3-0.1-10.3c0.9-1.1,2.9-7.1,2.9-7.1c0.8,1.1,4.5,1.2,4.5,1.2c0.3,1.6,1.5,2.2,1.5,2.2c2.5,1,1.5-6.9,1.5-6.9
		c0.7-2.5-3.5-3.1-3.5-3.1c-7.3-1.9-9,2.5-9,2.5l-1.9,4c-2.7,2.8-7.8,12.6-7.8,12.6c-2.9,7.7-0.1,9.1-0.1,9.1l5.3,4
		c9,8.4,14.5,7.2,14.5,7.2c7.2-0.1,6.6,4.4,6.6,4.4c0.3,6.9,5.3,14,5.3,14c1.2,3.8,1.7,8.1,1.8,12.1c-0.4,12.1-4.4,27.2-3.7,34.3
		c0,0-10.1,20.9-3.7,26.9c0,0-0.4,6.2,11.3,10.7c0,0,6.8,4.9,7.5,6.2c0,0,3.5,11,7.3,18.6c0,0,3,8.2,1.6,12.5l-8.3,5.2
		c0,0-8.6,1.6-10.7,5.2c0,0-1.5,3.8,8.1,1.5c0,0,13.3-2.4,17.1-1.9c0,0,8,2,6-5.7c0,0-4.3-14.5-4.8-22.8c0,0,11.8,12,10.2,29.7
		c0,0-0.5,1.4,2.2,1.1c0,0,2.8,3.7,4.5-5.6c0,0,3.3-20.2,0.4-25.5c0,0-1.8-1.8-5.7-2c0,0-11.4-10.7-15.1-19.7c0,0-2.7-8-4.1-9.2
		l0.8-18.3c0,0,2.6-5.8,3.4-10.6c0,0,7.4-2.9,7.5-13.9c0.1-5.6-0.5-5.6-2.1-13.9c0.2-1.7,0.5-3.2,0.9-4.3c0.6-1.8,2.9-7.9,4.6-10.2
		c2.8-3.8,6.7-8.7,8.1-12c2.8-6.4,4.1-6.3,4.1-6.3c9.9,0,15.4-6.9,15.4-6.9c1.6-2,4.1-4.4,5.9-5.4C149.4,26.6,149,24.2,149,24.2z"/>
</g>
</svg>
