<?xml version="1.0" encoding="utf-8"?>
<!-- Generator: Adobe Illustrator 21.1.0, SVG Export Plug-In . SVG Version: 6.00 Build 0)  -->
<svg version="1.1" id="Capa_1" xmlns="http://www.w3.org/2000/svg" xmlns:xlink="http://www.w3.org/1999/xlink" x="0px" y="0px"
	 viewBox="0 0 512 512" style="enable-background:new 0 0 512 512;" xml:space="preserve">
<style type="text/css">
	.st0{fill:#7E7E7E;}
</style>
<g>
	<g>
		<g>
			<path class="st0" d="M315.6,73.7c-1.1,0-2-0.6-2.1-1.4c-0.1-0.8,0-2.3,0.1-3.3c0,0,1.1-10,6.4-16.4c4.8-5.6,7.4-9.7,7.4-14.5
				c0-5.4-3.4-9-10-9.1c-3.8,0-8,1.3-10.7,3.3l-1.8-4.8c-0.4-1,0.1-2.2,1.1-2.6c0,0,7.7-3.4,13.4-3.4c12.2,0,17.7,7.5,17.7,15.6
				c0,7.2-4,12.4-9.1,18.4c-4.7,5.5-6.4,10.2-6,15.6l0,0.8c0,1.1-0.8,1.9-1.9,1.9H315.6z"/>
		</g>
		<g>
			<path class="st0" d="M319.9,75.7h-4.4c-2.1,0-3.9-1.4-4-3.2c-0.1-0.9,0-2.5,0.1-3.7c0-0.4,1.2-10.7,6.8-17.4c4.4-5.2,7-9,7-13.3
				c0-5.8-4.4-7.1-8.1-7.2c-3.4,0-7.2,1.2-9.5,2.9l-2.1,1.6l-2.8-7.3c-0.7-2,0.2-4.2,2.1-5.1c0.3-0.2,8.2-3.6,14.1-3.6
				c13.6,0,19.6,8.8,19.6,17.5c0,7.7-4.1,13.2-9.6,19.7c-4.2,5-5.9,9.2-5.6,14.2l0,0.8c0,1.1-0.3,2.1-1.1,2.8
				C322,75.3,321,75.7,319.9,75.7z M315.5,71.7l4.4,0.1l0-0.7c-0.4-6,1.6-11.1,6.5-16.9c5.1-6,8.6-10.8,8.6-17.2
				c0-6.6-4.1-13.6-15.7-13.6c-5.1,0-12.5,3.2-12.6,3.3l1,2.8c2.8-1.4,6.4-2.3,9.7-2.3c7.4,0.1,12,4.4,12,11.1
				c0,5.4-2.9,9.9-7.9,15.8c-4.8,5.8-5.9,15.2-5.9,15.3C315.5,70,315.4,71,315.5,71.7z"/>
		</g>
	</g>
	<g>
		<g>
			<path class="st0" d="M311.3,88.5c0-3.9,2.6-6.7,6.4-6.7c3.7,0,6.2,2.7,6.2,6.7c0,3.7-2.4,6.6-6.4,6.6
				C313.9,95.1,311.3,92.2,311.3,88.5z"/>
		</g>
		<g>
			<path class="st0" d="M317.6,97c-4.7,0-8.2-3.7-8.2-8.5c0-5,3.5-8.6,8.3-8.6c4.7,0,8.2,3.6,8.2,8.6C325.9,93.5,322.4,97,317.6,97z
				 M317.7,83.8c-2.6,0-4.4,1.9-4.4,4.7c0,2.7,1.8,4.6,4.3,4.6c2.7,0,4.4-1.8,4.4-4.6C322,85.7,320.3,83.8,317.7,83.8z"/>
		</g>
	</g>
</g>
<g>
	<path class="st0" d="M156.9,243.4l71-18.3c6.9-1.8,13.6-8.3,15.5-15.2l17.8-63.9c1.1-3.9,0.5-7.9-1.7-10.9
		c-2.2-3.1-5.8-4.9-9.8-5.2l-7.6-0.4c-7.4,0-14.5,5.3-16.7,12.2l-11.7,38.1c-1.1,3.5-5.3,7.4-8.8,8.3l-52.8,10.2
		c-7.3,1.8-13.3,9.1-13.5,16.6c0,0-0.7,23.1,1.6,25.4C142.6,242.6,145.6,245,156.9,243.4z"/>
	<path class="st0" d="M204.1,169.4c2.2,0,4.3-0.2,6.4-0.4l8.9-29.1c2.9-9.5,12.7-16.7,22.7-16.7l8,0.4c2.2,0.1,4.2,0.7,6.1,1.4
		c0.4-2.7,0.7-5.5,0.7-8.4c0-29.1-23.7-52.8-52.8-52.8s-52.8,23.7-52.8,52.8S175,169.4,204.1,169.4z"/>
	<path class="st0" d="M320.5,0c-29.1,0-52.8,26.1-52.8,58.3c0,14.4,4.8,27.6,12.7,37.8c-0.4,0.3-0.8,0.7-1.1,1.1l-10.9,17
		c-1.4,2.3-0.8,5.3,1.5,6.7c0.8,0.5,1.7,0.8,2.6,0.8c1.6,0,3.2-0.8,4.1-2.3l10.3-16.2c9.1,8.3,20.8,13.2,33.5,13.2
		c29.1,0,52.8-26.1,52.8-58.3S349.6,0,320.5,0z M320.5,106.8c-23.7,0-43-21.8-43-48.5s19.3-48.5,43-48.5c23.7,0,43,21.8,43,48.5
		S344.2,106.8,320.5,106.8z"/>
	<path class="st0" d="M270.9,191.7c-2.9-4.1-8.1-7.3-13.4-8.9l-8,28.7c-2.5,9-11,17.3-20,19.7l-71,18.3c-3.4,0.5-5.8,0.7-8.1,0.7
		c-0.6,0-1.2,0-1.8-0.1v93v2.5v142.1c0,13.4,10.9,24.4,24.4,24.4h1.7c13.4,0,24.4-10.9,24.4-24.4V360.2h10.4v127.5
		c0,13.4,10.9,24.4,24.4,24.4h1.7c13.4,0,24.4-10.9,24.4-24.4V345.6v-2.5v-0.6h1.5c7.1,0,15.3-4.8,18.8-11l33.8-60
		c3.5-6.3,3-15.8-1.2-21.6L270.9,191.7z M276.1,270.6l-16.3,26.6v-60.5l16,22.9C277.7,262.4,277.9,267.6,276.1,270.6z"/>
</g>
</svg>
