<?xml version="1.0" encoding="utf-8"?>
<!-- Generator: Adobe Illustrator 21.1.0, SVG Export Plug-In . SVG Version: 6.00 Build 0)  -->
<svg version="1.1" id="Capa_1" xmlns="http://www.w3.org/2000/svg" xmlns:xlink="http://www.w3.org/1999/xlink" x="0px" y="0px"
	 viewBox="0 0 232.7 232.7" style="enable-background:new 0 0 232.7 232.7;" xml:space="preserve">
<g>
	<path d="M174.9,75.2c1.3-8.8-3.9-13.3-6.5-17.1c-3.8-5.5-9.8-10-9.8-10c-1.9-9.8-10.6-11.9-14.6-11.8c-8.4,0.2-18.5-5.1-18.5-5.1
		c0-6.1,1.1-9.4,1.1-9.4c4.2-6.7,0.9-7.7,0.9-7.7c1.8-11.8-7.3-13.9-7.3-13.9S118-0.1,116.4,0h-0.1c-1.6-0.1-3.8,0.3-3.8,0.3
		s-9,2-7.3,13.9c0,0-3.3,1,0.9,7.7c0,0,1.1,3.3,1.1,9.4c0,0-10.1,5.3-18.5,5.1c-4-0.1-12.7,2-14.6,11.8c0,0-6,4.5-9.8,10
		c-2.6,3.8-7.8,8.3-6.5,17.1c0,0,2.7,11.9,4.9,15.9c0.8,1.6-0.2,4.9-0.9,6.9c0,0-0.2,3.9,1.1,6.1c0,0,0,3.6,2.9,3.5
		c0,0,0.8,1.2,2.9,0.9c0,0,1,0.7,2.8,0.2c0,0,1.2,0.4,3.1-0.3c0,0,2.5,0.9,2-3.1c0,0,2.1,0.1,1.3-4.3c0,0-2.9-4.9-6.2-6.7
		c0,0-0.7-5.9-0.3-7.6c0.9-3.9,1.9-9.8-0.5-13.8c0,0,6.2-2,8.4-4c2.8-2.5,4.4-4.1,6.2-6.9c-0.9,2.2-1.1,7.7,11.5,17.5
		c0,0-1.4,15,1.8,23c0,0-16.2,31.9-6.2,51.6c0,0,2.4,3.5,1.7,9.7c0,0-5.9,20,2.1,41.8c0,0,6.3,14.7-10.2,20.2c0,0-3.7,6,1.4,6.9
		c0,0,4.5,0.9,10.5-6.2c0,0,2.5-1.7,8.4-2.9c0,0,4.2-0.6,0.9-7.8c0,0-0.9-1.5-0.8-4.3c0.1-2.7,0.3-3.7,0.5-4.2
		c0.5-1.2,8.1-32.6,2.1-40.4c0,0-1.2-1.6,0.6-5.7c0,0,6.2-8.7,7.1-23.9c0.9,15.2,7.1,23.9,7.1,23.9c1.8,4.1,0.6,5.7,0.6,5.7
		c-6,7.9,1.6,39.2,2.1,40.4c0.2,0.4,0.4,1.4,0.5,4.2c0.1,2.8-0.8,4.3-0.8,4.3c-3.3,7.2,0.9,7.8,0.9,7.8c5.8,1.1,8.4,2.9,8.4,2.9
		c6,7.1,10.5,6.2,10.5,6.2c5.2-0.9,1.4-6.9,1.4-6.9c-16.5-5.5-10.2-20.2-10.2-20.2c7.9-21.8,2.1-41.8,2.1-41.8
		c-0.7-6.1,1.7-9.7,1.7-9.7c9.9-19.8-6.2-51.6-6.2-51.6c3.2-8,1.8-23,1.8-23c12.6-9.7,12.4-15.3,11.5-17.5c1.8,2.8,3.3,4.3,6.2,6.9
		c2.2,1.9,8.4,4,8.4,4c-2.4,4.1-1.4,10-0.5,13.8c0.4,1.7-0.3,7.6-0.3,7.6c-3.3,1.8-6.2,6.7-6.2,6.7c-0.8,4.4,1.3,4.3,1.3,4.3
		c-0.5,4,2,3.1,2,3.1c1.9,0.7,3.1,0.3,3.1,0.3c1.8,0.5,2.8-0.2,2.8-0.2c2.1,0.3,2.9-0.9,2.9-0.9c2.9,0.1,2.9-3.5,2.9-3.5
		c1.3-2.2,1.1-6.1,1.1-6.1c-0.7-2-1.7-5.4-0.9-6.9C172.1,87.2,174.9,75.2,174.9,75.2z"/>
</g>
</svg>
