<?xml version="1.0" encoding="utf-8"?>
<!-- Generator: Adobe Illustrator 21.1.0, SVG Export Plug-In . SVG Version: 6.00 Build 0)  -->
<svg version="1.1"
	 id="svg2" inkscape:version="0.91 r13725" sodipodi:docname="Q12174_noun_5364_ccAnaFelix_obesity.svg" xmlns:cc="http://creativecommons.org/ns#" xmlns:dc="http://purl.org/dc/elements/1.1/" xmlns:inkscape="http://www.inkscape.org/namespaces/inkscape" xmlns:rdf="http://www.w3.org/1999/02/22-rdf-syntax-ns#" xmlns:sodipodi="http://sodipodi.sourceforge.net/DTD/sodipodi-0.dtd" xmlns:svg="http://www.w3.org/2000/svg"
	 xmlns="http://www.w3.org/2000/svg" xmlns:xlink="http://www.w3.org/1999/xlink" x="0px" y="0px" viewBox="0 0 70.9 135.8"
	 style="enable-background:new 0 0 70.9 135.8;" xml:space="preserve">
<sodipodi:namedview  bordercolor="#666666" borderopacity="1" gridtolerance="10" guidetolerance="10" id="namedview10" inkscape:current-layer="svg2" inkscape:cx="31.237209" inkscape:cy="63.66758" inkscape:pageopacity="0" inkscape:pageshadow="2" inkscape:window-height="988" inkscape:window-maximized="1" inkscape:window-width="1680" inkscape:window-x="-8" inkscape:window-y="-8" inkscape:zoom="4.9148385" objecttolerance="10" pagecolor="#ffffff" showgrid="false">
	</sodipodi:namedview>
<path id="path4" inkscape:connector-curvature="0" d="M36.1,36.7c-0.2,0-0.5,0-0.7,0s-0.5,0-0.7,0C15.5,37.1,0,53.9,0,74.6
	c0,2.7,2.2,5,5,5c2.7,0,5-2.2,5-5c0-9,2.9-17.2,7.8-23.6c-3.2,6.4-5.4,14.6-5.9,23.6h47.4c-0.6-9-2.7-17.2-5.9-23.6
	c4.9,6.5,7.8,14.7,7.8,23.6c0,2.7,2.2,5,5,5c2.7,0,5-2.2,5-5C70.9,53.9,55.4,37.1,36.1,36.7z M59.2,76.3H11.7c0,1.1-0.1,2.2-0.1,3.3
	c0,15.7,4.7,29.5,11.8,36.9c-2.3,1.1-3.6,2.6-3.6,4.2h14.8l0.9-32.9l0.9,32.9h14.8c0-1.6-1.4-3-3.6-4.2c7-7.4,11.8-21.2,11.8-36.9
	C59.3,78.4,59.2,77.4,59.2,76.3z M35.4,35.1c6.4,0,11.5-5.2,11.5-11.5C47,17.2,41.8,12,35.4,12c-6.4,0-11.5,5.2-11.5,11.5
	C23.9,29.9,29.1,35.1,35.4,35.1z"/>
</svg>
