<?xml version="1.0" encoding="utf-8"?>
<!-- Generator: Adobe Illustrator 21.1.0, SVG Export Plug-In . SVG Version: 6.00 Build 0)  -->
<svg version="1.1" id="Capa_1" xmlns="http://www.w3.org/2000/svg" xmlns:xlink="http://www.w3.org/1999/xlink" x="0px" y="0px"
	 viewBox="0 0 63.7 63.7" style="enable-background:new 0 0 63.7 63.7;" xml:space="preserve">
<style type="text/css">
	.st0{fill:#010002;}
</style>
<g>
	<g>
		<path class="st0" d="M46.8,7.1c0.4-3.5-2.1-6.7-5.6-7.1c-3.5-0.4-6.6,2.1-7,5.6c-0.4,3.5,2.1,6.7,5.6,7.1
			C43.2,13.2,46.4,10.6,46.8,7.1z"/>
		<path class="st0" d="M10.2,61.8c3.9-6.6,7.7-13.3,11.6-19.9c0.3,0.3,6.8,3.1,9.3,4.8c-2.6,1.6-5.2,3.2-7.8,4.7
			c-4.3,2.6-0.4,9.4,3.9,6.8c4-2.4,13.3-8.4,13.6-9c1.2-1.4,1.5-3.5-0.3-5.1c-3-2.7-6.3-5-9.8-6.8c2.4-4.7,4.9-9.3,7.5-13.9
			c8.4,2.6,16.3-0.5,22-8.5c2.9-4.1-3.8-8.1-6.7-4c-4.4,6.3-10.4,7-16.8,3.2c-0.4-0.3-2.4-1.3-2.8-1.6c-10.3-6.2-20.5-3.7-27.4,6
			c-2.9,4.1,3.8,8.1,6.7,4c3.6-5,8.1-6.5,13-4.9C23.6,22.2,8.4,49.4,3.4,57.8C0.9,62.2,7.6,66.2,10.2,61.8z"/>
	</g>
</g>
</svg>
