<?xml version="1.0" encoding="utf-8"?>
<!-- Generator: Adobe Illustrator 21.1.0, SVG Export Plug-In . SVG Version: 6.00 Build 0)  -->
<svg version="1.1" id="Слой_1" xmlns="http://www.w3.org/2000/svg" xmlns:xlink="http://www.w3.org/1999/xlink" x="0px" y="0px"
	 viewBox="0 0 500 500" style="enable-background:new 0 0 500 500;" xml:space="preserve">
<g>
	<g>
		<path d="M258.6,42c-114.7,0-208,93.3-208,208c0,114.7,93.3,208,208,208c114.7,0,208-93.3,208-208C466.6,135.3,373.3,42,258.6,42z
			 M310.3,257.3h-33.8c0,54.1,0,120.6,0,120.6h-50.1c0,0,0-65.9,0-120.6h-23.8v-42.6h23.8v-27.6c0-19.7,9.4-50.6,50.6-50.6l37.2,0.1
			V178c0,0-22.6,0-27,0s-10.6,2.2-10.6,11.6v25h38.2L310.3,257.3z"/>
	</g>
</g>
</svg>
