<?xml version="1.0" encoding="utf-8"?>
<!-- Generator: Adobe Illustrator 21.1.0, SVG Export Plug-In . SVG Version: 6.00 Build 0)  -->
<svg version="1.1" id="Слой_1" xmlns="http://www.w3.org/2000/svg" xmlns:xlink="http://www.w3.org/1999/xlink" x="0px" y="0px"
	 viewBox="0 0 500 500" style="enable-background:new 0 0 500 500;" xml:space="preserve">
<g>
	<path d="M258.6,210.1c-23,0-41.7,18.7-41.7,41.7c0,23,18.7,41.7,41.7,41.7s41.7-18.7,41.7-41.7
		C300.3,228.8,281.6,210.1,258.6,210.1z"/>
	<path d="M308.6,143.4H208.6c-32.2,0-58.4,26.2-58.4,58.4v100.1c0,32.2,26.2,58.4,58.4,58.4h100.1c32.2,0,58.4-26.2,58.4-58.4V201.8
		C367,169.6,340.8,143.4,308.6,143.4z M258.6,318.5c-36.8,0-66.7-29.9-66.7-66.7c0-36.8,29.9-66.7,66.7-66.7s66.7,29.9,66.7,66.7
		C325.3,288.6,295.4,318.5,258.6,318.5z M330.3,189c-4.9,0-8.9-4-8.9-8.9s4-8.9,8.9-8.9s8.9,4,8.9,8.9S335.2,189,330.3,189z"/>
	<path d="M258.6,40.2C141.7,40.2,47,135,47,251.8s94.7,211.6,211.6,211.6s211.6-94.7,211.6-211.6S375.4,40.2,258.6,40.2z M392,301.8
		c0,46-37.3,83.4-83.4,83.4H208.6c-46,0-83.4-37.3-83.4-83.4V201.8c0-46,37.3-83.4,83.4-83.4h100.1c46,0,83.4,37.3,83.4,83.4V301.8z
		"/>
</g>
</svg>
