<?xml version="1.0" encoding="utf-8"?>
<!-- Generator: Adobe Illustrator 21.1.0, SVG Export Plug-In . SVG Version: 6.00 Build 0)  -->
<svg version="1.1" id="Слой_1" xmlns="http://www.w3.org/2000/svg" xmlns:xlink="http://www.w3.org/1999/xlink" x="0px" y="0px"
	 viewBox="0 0 500 500" style="enable-background:new 0 0 500 500;" xml:space="preserve">
<g>
	<g>
		<path d="M220.7,297.6c31.2-16.2,62.1-32.2,93.4-48.4c-31.3-16.3-62.2-32.5-93.4-48.7C220.7,232.9,220.7,265.1,220.7,297.6z"/>
		<path d="M258.6,44c-114.9,0-208,93.1-208,208s93.1,208,208,208s208-93.1,208-208S373.4,44,258.6,44z M400.3,321.4
			c-3.6,15.6-16.4,27.1-31.7,28.8c-36.4,4.1-73.3,4.1-110,4.1c-36.7,0-73.6,0-110-4.1c-15.4-1.7-28.1-13.2-31.7-28.8
			c-5.1-22.2-5.1-46.5-5.1-69.4s0.1-47.2,5.2-69.4c3.6-15.6,16.4-27.1,31.7-28.9c36.4-4.1,73.3-4.1,110-4.1c36.7,0,73.5,0,110,4.1
			c15.4,1.7,28.2,13.2,31.7,28.9c5.1,22.2,5.1,46.5,5.1,69.4S405.4,299.2,400.3,321.4z"/>
	</g>
</g>
</svg>
