<?xml version="1.0" encoding="utf-8"?>
<!-- Generator: Adobe Illustrator 21.1.0, SVG Export Plug-In . SVG Version: 6.00 Build 0)  -->
<svg version="1.1" id="Layer_1" xmlns="http://www.w3.org/2000/svg" xmlns:xlink="http://www.w3.org/1999/xlink" x="0px" y="0px"
	 viewBox="0 0 512 512" style="enable-background:new 0 0 512 512;" xml:space="preserve">
<style type="text/css">
	.st0{fill:#FFFFFF;}
</style>
<g>
	<g>
		<path class="st0" d="M508,154.8c-5.6-6.1-15.1-6.4-21.2-0.8l-30.3,28.2c-0.5-0.3-1-0.5-1.4-0.7c-4.2-2.1-9-2.6-13.4,0.3l0.6-1.4
			c1-2.3-0.1-4.9-2.3-5.8c-1.9-0.8-4.1-0.2-5.3,1.5c0.2-1.4,0.2-2.8,0.2-4.2c0-20.6-16.7-37.3-37.3-37.3
			c-20.6,0-37.3,16.7-37.3,37.3c0,1.4,0.1,2.8,0.2,4.2c-1.2-1.6-3.4-2.3-5.3-1.5c-2.3,1-3.3,3.6-2.3,5.8l0.6,1.4
			c-4.4-2.9-9.2-2.3-13.4-0.3c-3.2,1.6-7.5,4.1-12,8.8L276.4,156c-6.9-4.6-16.2-2.7-20.8,4.2c-4.6,6.9-2.7,16.2,4.2,20.8
			c107,71.1,101,67.1,101.8,67.6c-3.6,29.5,0.8,4.3-23.6,130.1c-0.5,2.4,0.2,5,1.8,6.9c1.6,1.9,3.9,3,6.4,3c2.2,0,4.7,0,7.4,0
			l-18.2,92.8c-2.2,11.1,6.3,21.5,17.7,21.5c8.4,0,16-6,17.6-14.5l19.6-99.8c6,0,12.1,0,18,0l14.8,99c1.3,8.9,9,15.4,17.8,15.4
			c11.1,0,19.4-9.8,17.8-20.7l-14-93.6c1.5,0,2.9,0,4.2,0c2.5,0,4.8-1.1,6.4-3c1.6-1.9,2.2-4.4,1.8-6.9
			c-24.4-125.8-19.8-99.5-24-133.7l38.2-35.5c1.6,0.3,3.1,0.7,4.7,1.2c0.9,0.3,1.9,0,2.5-0.7c0.6-0.7,0.8-1.7,0.3-2.6
			c-0.6-1.2-1.1-2.3-1.7-3.3l30.2-28C513.3,170.4,513.6,160.9,508,154.8z M415.2,220.6c-15.8,0-24.2,0-41.6,0l-19.8-13.2
			c0.1-0.1,0.3-0.1,0.4-0.1c3.4-1.7,5.7-4.7,6.7-8.1l0.6,1.5c0.7,1.7,2.4,2.7,4.1,2.7c0.6,0,1.2-0.1,1.7-0.4c2.3-1,3.3-3.6,2.3-5.8
			l-0.6-1.3c6.8,8.1,17,13.2,28.5,13.2c11.4,0,21.6-5.1,28.5-13.2l-0.6,1.3c-1,2.3,0.1,4.9,2.3,5.8c0.6,0.2,1.2,0.4,1.7,0.4
			c1.7,0,3.4-1,4.1-2.7l0.6-1.5c0.3,0.9,0.6,1.8,1.1,2.7L415.2,220.6z"/>
	</g>
</g>
<g>
	<g>
		<circle class="st0" cx="119.1" cy="162.9" r="37.4"/>
	</g>
</g>
<g>
	<g>
		<path class="st0" d="M240.9,125.3c5-6.7,3.6-16.2-3.1-21.2c-6.7-5-16.2-3.6-21.2,3.1l-78.1,105c-4.2,0-35.9,0-40.4,0l-71.3-86.8
			c-5.3-6.5-14.8-7.4-21.3-2.1c-6.5,5.3-7.4,14.8-2.1,21.3l75.4,91.8V337L35.6,479.4c-2.9,9.6,2.5,19.7,12.1,22.6
			c9.6,2.9,19.7-2.5,22.6-12.1l40.3-132.7h14.1l13.1,129.3c1,10,9.9,17.2,19.9,16.2c10-1,17.2-9.9,16.2-19.9
			c-15.8-155.7-14.7-145.3-14.9-146.6V235.4L240.9,125.3z"/>
	</g>
</g>
<g>
	<g>
		<circle class="st0" cx="295.2" cy="51.8" r="42.7"/>
	</g>
</g>
</svg>
