<?xml version="1.0" encoding="utf-8"?>
<!-- Generator: Adobe Illustrator 21.1.0, SVG Export Plug-In . SVG Version: 6.00 Build 0)  -->
<svg version="1.1" id="Capa_1" xmlns="http://www.w3.org/2000/svg" xmlns:xlink="http://www.w3.org/1999/xlink" x="0px" y="0px"
	 viewBox="0 0 177.2 177.2" style="enable-background:new 0 0 177.2 177.2;" xml:space="preserve">
<style type="text/css">
	.st0{fill:#FFFFFF;}
</style>
<g>
	<g>
		<path class="st0" d="M53.4,79.8c-1.4-1.3-2.2-2.8-2.2-4.7c0-9.5,9-21.8,22.8-27.4C69.9,43.2,67.2,37,66.7,31
			c-5.5,1.8-10.5,6-12.2,11l-9,26.1C43.5,74.2,47,79.1,53.4,79.8z"/>
		<path class="st0" d="M126,75.1c0,1.8-0.8,3.4-2.2,4.7c6.4-0.7,10-5.7,7.9-11.7l-9-26.1c-1.7-5-6.7-9.2-12.2-11
			c-0.5,6-3.1,12.2-7.3,16.7C117,53.3,126,65.7,126,75.1z"/>
		<path class="st0" d="M80.1,49c-14.8,3.8-25.8,16.6-25.8,26.2c0,11.3,68.5,11.3,68.5,0c0-9.5-11-22.4-25.8-26.2
			c6.2-4.2,10.5-12.4,10.5-19.8c0-10.5-8.5-18.9-18.9-18.9c-10.5,0-18.9,8.5-18.9,18.9C69.7,36.6,73.9,44.8,80.1,49z M88.6,51.7
			c1.6,0,3.2-0.3,4.7-0.9l-3.1,3.6h-0.1L98.2,74l-9.6,9.6L79,74l8.1-19.5H87l-3.1-3.6C85.4,51.4,86.9,51.7,88.6,51.7z"/>
		<polygon class="st0" points="177.2,108.6 177.2,100.5 154.5,83.6 172.3,100.5 4.8,100.5 22.7,83.6 0,100.5 0,108.6 16.5,108.6 
			16.5,157.8 12.4,157.8 12.4,162.4 6.3,162.4 6.3,167 170.9,167 170.9,162.4 164.8,162.4 164.8,157.8 160.7,157.8 160.7,108.6 		
			"/>
	</g>
</g>
</svg>
