<?xml version="1.0" encoding="utf-8"?>
<!-- Generator: Adobe Illustrator 21.1.0, SVG Export Plug-In . SVG Version: 6.00 Build 0)  -->
<svg version="1.1" id="Capa_1" xmlns="http://www.w3.org/2000/svg" xmlns:xlink="http://www.w3.org/1999/xlink" x="0px" y="0px"
	 viewBox="0 0 418.7 418.7" style="enable-background:new 0 0 418.7 418.7;" xml:space="preserve">
<style type="text/css">
	.st0{fill:#FFFFFF;}
</style>
<g>
	<g>
		<path class="st0" d="M286.3,82.4c22.7,0,41.2-18.5,41.2-41.2S309.1,0,286.3,0c-22.7,0-41.2,18.5-41.2,41.2S263.6,82.4,286.3,82.4z
			"/>
		<path class="st0" d="M129.3,82.4c22.7,0,41.2-18.5,41.2-41.2S152.1,0,129.3,0c-22.7,0-41.2,18.5-41.2,41.2S106.6,82.4,129.3,82.4z
			"/>
		<path class="st0" d="M227.6,210.8l-31.2-108.7c-1.8-10-10.4-17.2-20.5-17.2H82.8c-10.2,0-18.7,7.2-20.5,17.2L31,210.8
			c-0.3,1-0.3,2.1,0,3.1c-0.2,1-0.2,2-0.2,2.9c0,11.5,9.4,20.9,20.9,20.9c10.1,0,18.7-7.2,20.4-16.7l13.5-50L63.4,279
			c-1,2.5-1.5,5.1-1.5,7.7c0,11.5,9.4,20.9,20.9,20.9h2.3v90.2c0,11.5,9.4,20.9,20.9,20.9s20.9-9.4,20.9-20.9v-90.2h5v90.2
			c0,11.5,9.4,20.9,20.9,20.9s20.9-9.4,20.9-20.9v-90.2h2.3c11.5,0,20.9-9.4,20.9-20.9c0-2.7-0.5-5.2-1.5-7.7l-22.3-108l13.4,49.6
			c1.8,9.9,10.5,17.1,20.5,17.1c11.5,0,20.9-9.4,20.9-20.9c0-0.9-0.1-1.9-0.2-2.9C227.9,212.9,227.9,211.9,227.6,210.8z"/>
		<path class="st0" d="M384.6,213.9c0.3-0.8,0.3-1.7,0.1-2.6l-20.5-108.8c-1.6-10.2-10.3-17.6-20.6-17.6H229
			c-10.3,0-18.9,7.4-20.6,17.4l-20.5,109c-0.2,0.9-0.1,1.8,0.1,2.6c-0.2,1-0.2,2-0.2,2.9c0,11.5,9.4,20.9,20.9,20.9
			c10.1,0,18.7-7.2,20.5-17.2l12.9-80.9L242,397.8c0,11.5,9.4,20.9,20.9,20.9s20.9-9.4,20.9-20.9V270h5v127.8
			c0,11.5,9.4,20.9,20.9,20.9s20.9-9.4,20.9-20.9l-0.2-258.2l13,81c1.8,9.9,10.5,17.1,20.5,17.1c11.5,0,20.9-9.4,20.9-20.9
			C384.8,215.9,384.8,214.9,384.6,213.9z"/>
	</g>
</g>
</svg>
