<?xml version="1.0" encoding="utf-8"?>
<!-- Generator: Adobe Illustrator 21.1.0, SVG Export Plug-In . SVG Version: 6.00 Build 0)  -->
<svg version="1.1" id="Capa_1" xmlns="http://www.w3.org/2000/svg" xmlns:xlink="http://www.w3.org/1999/xlink" x="0px" y="0px"
	 viewBox="0 0 512 512" style="enable-background:new 0 0 512 512;" xml:space="preserve">
<style type="text/css">
	.st0{fill:#7E7E7E;}
</style>
<g>
	<path class="st0" d="M404.7,154c11.9,5.4,24.4,11.4,24.6,11.5c1.9,0.9,3.9,1.3,5.9,1.3c5.2,0,10.1-2.9,12.5-7.9
		c3.3-6.9,0.3-15.1-6.6-18.4c-0.5-0.2-5.5-2.6-12-5.6C423.6,144,415,151,404.7,154z"/>
	<g>
		<path class="st0" d="M211.6,152.9l-6,5.5l-7.9-7.4c-1.6-0.3-3.2-0.6-4.8-1.1c-3.3,1.5-7.1,3.5-11.1,5.9c0.3-1.7,0.3-3.5-0.1-5.2
			c1.8-1,3.5-2,5.3-2.9c-9.2-4.2-16.6-11.5-21-20.6c-2.4,1.5-4.8,3-7.1,4.5c-3.3-1.9-6.5-3.7-9-5.1c-4.2,9.2-11.6,16.6-20.7,21
			c7.5,3.9,25.6,13.9,30.7,17.5c1.1,0.8,2.3,1.3,3.5,1.7v73.5c0,6.3,1,12.3,2.9,17.8c-0.1,0.6-0.1,1.2-0.1,1.8v16.5h0.1
			c0,0.2-0.1,0.5-0.1,0.7l0,145.2c0,9.9,8,17.9,17.9,17.9c9.9,0,17.9-8,17.9-17.9l0-145.2c0-0.2-0.1-0.5-0.1-0.7h2.7
			c0,0.2-0.1,0.5-0.1,0.7l0,145.2c0,9.9,8,17.9,17.9,17.9l0,0c9.9,0,17.9-8,17.9-17.9l0-145.2c0-0.2-0.1-0.5-0.1-0.7h0.2l0-18.8
			c0,0,3.2-4.2,3.2-19.6c0-8.3,0.8-39.1,0.8-39.1l0.1-33.7c-0.2-0.1-25.7-14-25.7-14L211.6,152.9z"/>
		<path class="st0" d="M118.8,152l-7.9,6l-6-5.5c-13,5.9-28.7,13.4-29,13.5c-2.3,1.1-4.7,1.6-7.2,1.6c-2.8,0-5.5-0.7-7.8-2l-0.1,0.1
			c-15.1-12.1-27.7-33.1-32.1-42.1c-3.7-7.5-12.7-10.7-20.3-7c-7.5,3.7-10.7,12.7-7,20.3c2.7,5.5,27.2,54.1,64.2,65.7
			c2.1,0.7,4.3,1.2,6.4,1.6c0.2,9.3,0.7,27.3,0.7,33.3c0,15.4,3.2,19.6,3.2,19.6l0,18.8h0.3c0,0.2-0.1,0.5-0.1,0.7l0,145.2
			c0,9.9,8,17.9,17.9,17.9c9.9,0,17.9-8,17.9-17.9l0-145.2c0-0.2-0.1-0.5-0.1-0.7h2.7c0,0.2-0.1,0.5-0.1,0.7l0,145.2
			c0,9.9,8,17.9,17.9,17.9c9.9,0,17.9-8,17.9-17.9l0-145.2c0-0.2-0.1-0.5-0.1-0.7h0v-16.5c0-0.6,0-1.2-0.1-1.8
			c1.9-5.5,2.9-11.5,2.9-17.8v-74.9c-6.4,0.5-25.9-13.6-28.2-14.7C123.5,150.7,120.5,151.7,118.8,152z"/>
		<path class="st0" d="M68.3,162.8c2,0,4.1-0.4,6-1.4c0.2-0.1,12.8-6,24.8-11.6c-10.7-3-19.8-10-25.4-19.3
			c-6.2,2.9-10.9,5.1-11.4,5.4c-7,3.3-10.1,11.7-6.7,18.8C58,159.9,63,162.8,68.3,162.8z"/>
		<circle class="st0" cx="205.6" cy="109.1" r="39.1"/>
		<circle class="st0" cx="111.4" cy="109.1" r="39.1"/>
		<path class="st0" d="M307.4,154.3l-6,5.5l-7.9-7.4c-1.6-0.3-3.2-0.6-4.8-1.1c-3.3,1.5-7.1,3.5-11.1,5.9c0.3-1.7,0.3-3.5-0.1-5.2
			c1.8-1,3.5-2,5.3-2.9c-9.2-4.2-16.6-11.5-21-20.6c-2.4,1.5-4.8,3-7.1,4.5c-3.3-1.9-6.5-3.7-9-5.1c-4.2,9.2-11.6,16.6-20.7,21
			c7.5,3.9,25.6,13.9,30.7,17.5c1.1,0.8,2.3,1.3,3.5,1.7v73.5c0,6.3,1,12.3,2.9,17.8c-0.1,0.6-0.1,1.2-0.1,1.8v16.5h0.1
			c0,0.2-0.1,0.5-0.1,0.7l0,145.2c0,9.9,8,17.9,17.9,17.9c9.9,0,17.9-8,17.9-17.9l0-145.2c0-0.2-0.1-0.5-0.1-0.7h2.7
			c0,0.2-0.1,0.5-0.1,0.7l0,145.2c0,9.9,8,17.9,17.9,17.9c9.9,0,17.9-8,17.9-17.9l0-145.2c0-0.2-0.1-0.5-0.1-0.7h0.2l0-18.8
			c0,0,3.2-4.2,3.2-19.6c0-8.3,0.8-39.1,0.8-39.1l0.1-33.7c-0.2-0.1-25.7-14.1-25.7-14.1L307.4,154.3z"/>
		<circle class="st0" cx="301.5" cy="110.4" r="39.1"/>
		<circle class="st0" cx="396.5" cy="111" r="39.1"/>
		<path class="st0" d="M503.5,115.5c-7.5-3.7-16.6-0.5-20.3,7c-4.9,9.9-19.6,34.3-36.7,45.5c-2.4,1.2-5,2-7.8,2
			c-2.5,0-4.9-0.5-7.2-1.6c-0.2-0.1-15.9-7.5-29-13.5l-6,5.5l-7.9-7.4c-1.6-0.3-3.2-0.6-4.8-1.1c-3.3,1.5-7.1,3.5-11.1,5.9
			c0.3-1.7,0.3-3.5-0.1-5.2c1.8-1,3.5-2,5.3-2.9c-9.2-4.2-16.6-11.5-21-20.6c-2.4,1.5-4.8,3-7.1,4.5c-3.3-1.9-6.5-3.7-9-5.1
			c-4.2,9.2-11.6,16.6-20.7,21c7.5,3.9,25.6,13.9,30.7,17.5c1.1,0.8,2.3,1.3,3.5,1.7V242c0,6.3,1,12.3,2.9,17.8
			c-0.1,0.6-0.1,1.2-0.1,1.8v16.5h0.1c0,0.2-0.1,0.5-0.1,0.7l0,145.2c0,9.9,8,17.9,17.9,17.9c9.9,0,17.9-8,17.9-17.9l0-145.2
			c0-0.2-0.1-0.5-0.1-0.7h2.7c0,0.2-0.1,0.5-0.1,0.7l0,145.2c0,9.9,8,17.9,17.9,17.9l0,0c9.9,0,17.9-8,17.9-17.9l0-145.2
			c0-0.2-0.1-0.5-0.1-0.7h0.2l0-18.8c0,0,3.2-4.2,3.2-19.6c0-6.7,0.5-28.1,0.8-36.1c1.8-0.2,3.6-0.5,5.4-0.8l0.1,0.1
			c0,0,0-0.1,0.1-0.1c1.7-0.4,3.5-0.8,5.2-1.3c37-11.6,61.5-60.2,64.2-65.7C514.1,128.2,511,119.2,503.5,115.5z"/>
	</g>
</g>
</svg>
