<?xml version="1.0" encoding="UTF-8" standalone="no"?>
<svg
   xmlns:dc="http://purl.org/dc/elements/1.1/"
   xmlns:cc="http://creativecommons.org/ns#"
   xmlns:rdf="http://www.w3.org/1999/02/22-rdf-syntax-ns#"
   xmlns:svg="http://www.w3.org/2000/svg"
   xmlns="http://www.w3.org/2000/svg"
   viewBox="0 0 506.66666 682.66669"
   height="682.66669"
   width="506.66666"
   xml:space="preserve"
   id="svg2"
   version="1.1"><metadata
     id="metadata8"><rdf:RDF><cc:Work
         rdf:about=""><dc:format>image/svg+xml</dc:format><dc:type
           rdf:resource="http://purl.org/dc/dcmitype/StillImage" /></cc:Work></rdf:RDF></metadata><defs
     id="defs6"><clipPath
       id="clipPath18"
       clipPathUnits="userSpaceOnUse"><path
         id="path16"
         d="M 0.06,512 H 379.009 V 0 H 0.06 Z" /></clipPath></defs><g
     transform="matrix(1.3333333,0,0,-1.3333333,0,682.66667)"
     id="g10"><g
       id="g12"><g
         clip-path="url(#clipPath18)"
         id="g14"><path
           id="path20"
           style="fill:#7E7E7E;fill-opacity:1;fill-rule:nonzero;stroke:none"
           d="M 355.052,16.168 H 215.744 l -18.267,108.586 c -0.655,3.893 -4.024,6.744 -7.972,6.744 -3.947,0 -7.316,-2.851 -7.972,-6.744 L 163.264,16.168 H 23.955 c -3.483,23.623 -13.805,106.1 -2.4,188.474 h 53.522 c 4.466,0 8.084,3.618 8.084,8.084 0,4.465 -3.618,8.084 -8.084,8.084 H 24.084 c 0.956,5.465 2.019,10.91 3.194,16.323 H 351.73 c 1.173,-5.413 2.235,-10.858 3.191,-16.323 H 106.334 c -4.466,0 -8.084,-3.619 -8.084,-8.084 0,-4.466 3.618,-8.084 8.084,-8.084 H 357.449 C 368.839,122.307 358.53,39.795 355.052,16.168 Z M 31.59,255.816 c 0.011,0.46 1.236,46.389 17.721,86.575 7.839,19.107 5.412,52.799 -7.212,100.143 -5.864,21.991 -12.523,41.657 -16.685,53.298 h 328.181 c -4.161,-11.641 -10.821,-31.307 -16.684,-53.297 -12.625,-47.344 -15.052,-81.037 -7.213,-100.143 16.446,-40.087 17.711,-86.118 17.721,-86.575 0.015,-0.642 0.106,-1.28 0.271,-1.899 0.055,-0.205 0.105,-0.412 0.16,-0.617 h -64.146 l 10.071,14.906 c 2.499,3.701 1.527,8.726 -2.173,11.225 -3.7,2.499 -8.726,1.526 -11.225,-2.173 L 264.189,253.3 H 115.396 l -16.188,23.959 c -2.501,3.699 -7.525,4.672 -11.225,2.173 -3.7,-2.499 -4.672,-7.524 -2.173,-11.225 L 95.881,253.301 H 31.16 c 0.054,0.205 0.106,0.412 0.161,0.617 0.164,0.619 0.254,1.256 0.269,1.898 z m 331.963,1.359 c -0.258,7.312 -2.46,51.287 -18.898,91.354 -13.133,32.011 15.818,120.906 28.082,152.457 0.965,2.488 0.644,5.291 -0.864,7.494 -1.507,2.203 -4.003,3.52 -6.672,3.52 H 13.807 C 11.138,512 8.642,510.683 7.136,508.48 5.629,506.277 5.307,503.473 6.273,500.986 18.536,469.435 47.486,380.54 34.354,348.529 17.916,308.462 15.714,264.487 15.456,257.175 -14.471,143.789 8.102,12.242 9.08,6.683 9.76,2.818 13.117,0 17.042,0 h 153.061 c 3.947,0 7.317,2.851 7.972,6.743 l 11.43,67.941 11.43,-67.941 C 201.591,2.851 204.96,0 208.907,0 h 153.061 c 3.925,0 7.283,2.818 7.963,6.683 0.976,5.558 23.549,137.105 -6.378,250.492" /></g></g><path
       id="path22"
       style="fill:#7E7E7E;fill-opacity:1;fill-rule:nonzero;stroke:none"
       d="m 189.504,300.727 c -4.466,0 -8.084,-3.618 -8.084,-8.084 v -7.545 c 0,-4.466 3.618,-8.084 8.084,-8.084 4.466,0 8.084,3.618 8.084,8.084 v 7.545 c 0,4.466 -3.618,8.084 -8.084,8.084" /><path
       id="path24"
       style="fill:#7E7E7E;fill-opacity:1;fill-rule:nonzero;stroke:none"
       d="m 280.214,359.881 c -3.379,2.916 -8.484,2.54 -11.402,-0.84 -0.14,-0.162 -14.002,-15.896 -37.521,-16.436 -8.583,-0.079 -23.907,2.052 -33.703,16.589 v 33.77 c 0,4.465 -3.618,8.084 -8.084,8.084 -4.466,0 -8.084,-3.619 -8.084,-8.084 v -33.769 c -9.779,-14.513 -25.066,-16.662 -33.659,-16.593 -23.265,0.512 -37.01,15.804 -37.567,16.438 -2.917,3.381 -8.023,3.758 -11.402,0.84 -3.381,-2.917 -3.757,-8.021 -0.84,-11.402 0.687,-0.795 15.285,-17.37 40.424,-21.252 0.502,-0.096 3.112,-0.559 7.06,-0.719 1.154,-0.058 2.321,-0.097 3.513,-0.097 7.397,0 14.064,1.07 19.814,3.18 0.647,0.237 1.239,0.556 1.782,0.928 6.495,2.542 13.117,6.573 18.96,12.881 5.844,-6.308 12.463,-10.338 18.958,-12.881 0.544,-0.372 1.135,-0.691 1.782,-0.928 5.751,-2.11 12.417,-3.18 19.814,-3.18 1.192,0 2.359,0.04 3.515,0.098 3.945,0.161 6.557,0.624 7.058,0.719 25.14,3.882 39.738,20.457 40.424,21.252 2.916,3.381 2.539,8.485 -0.842,11.402" /><path
       id="path26"
       style="fill:#7E7E7E;fill-opacity:1;fill-rule:nonzero;stroke:none"
       d="m 82.531,429.807 c 0.215,-0.344 0.457,-0.67 0.722,-0.977 0.79,-0.917 17.605,-20.006 46.601,-24.453 0.605,-0.116 3.673,-0.657 8.289,-0.833 1.259,-0.059 2.531,-0.098 3.829,-0.098 8.505,0 16.156,1.226 22.745,3.643 0.696,0.255 1.329,0.602 1.905,1.012 7.87,3.06 15.902,8.036 22.882,15.963 6.982,-7.928 15.015,-12.905 22.887,-15.966 0.575,-0.409 1.207,-0.755 1.902,-1.011 6.588,-2.416 14.24,-3.642 22.742,-3.642 1.297,0 2.57,0.039 3.829,0.098 4.63,0.176 7.705,0.72 8.297,0.834 28.993,4.449 45.804,23.536 46.593,24.452 0.266,0.307 0.507,0.633 0.723,0.976 l 14.798,23.527 c 2.377,3.781 1.24,8.771 -2.538,11.148 -3.777,2.376 -8.771,1.241 -11.148,-2.539 l -14.421,-22.928 c -2.459,-2.622 -17.879,-17.956 -42.675,-19.295 -9.852,-0.392 -30.335,1.338 -42.904,20.341 v 40.001 c 0,4.466 -3.618,8.084 -8.084,8.084 -4.465,0 -8.084,-3.618 -8.084,-8.084 v -40.001 c -11.816,-17.885 -30.441,-20.509 -40.876,-20.416 -25.771,0.584 -42.207,16.752 -44.714,19.388 l -14.408,22.91 c -2.376,3.781 -7.371,4.919 -11.147,2.54 -3.78,-2.377 -4.917,-7.367 -2.539,-11.146 l 14.794,-23.528" /></g></svg>