<?xml version="1.0" encoding="utf-8"?>
<!-- Generator: Adobe Illustrator 21.1.0, SVG Export Plug-In . SVG Version: 6.00 Build 0)  -->
<svg version="1.1" id="Capa_1" xmlns="http://www.w3.org/2000/svg" xmlns:xlink="http://www.w3.org/1999/xlink" x="0px" y="0px"
	 viewBox="0 0 512 512" style="enable-background:new 0 0 512 512;" xml:space="preserve">
<style type="text/css">
	.st0{fill:#FFFFFF;}
</style>
<g>
	<g>
		<path class="st0" d="M446,248.3c0-26.1-14.5-49.4-37.5-61.5c2.8-15.9-0.8-32.1-10.4-45.7c-9.9-14.1-24.6-23.3-41.4-26.1
			c-1.1-11.4-5.9-22.1-13.9-30.9C332.4,72.6,317.3,66,301.5,66c-18.8,0-35.5,9.2-45.5,23.2c-10-14-26.7-23.2-45.5-23.2
			c-15.8,0-30.9,6.6-41.4,18.1c-8,8.8-12.8,19.5-13.9,30.9c-16.8,2.9-31.5,12.1-41.4,26.1c-9.6,13.6-13.2,29.9-10.4,45.7
			c-23,12.1-37.5,35.4-37.5,61.5c0,22.9,11.1,43.7,29.7,56.7c-10.7,16.9-12.3,37.1-4,56.2c10.2,23.4,32.9,38.5,58,38.5
			c2,0,3.9-0.1,5.9-0.3c1.6,10.4,6.2,20.3,13.4,28.2c10.5,11.6,25.6,18.2,41.5,18.2c18.8,0,35.5-9.2,45.5-23.2
			c10,14,26.7,23.2,45.5,23.2c15.9,0,31-6.6,41.5-18.2c7.2-8,11.8-17.8,13.4-28.2c2,0.2,3.9,0.3,5.9,0.3l0,0
			c25.1,0,47.9-15.1,58-38.5c8.3-19.1,6.7-39.4-4-56.2C434.9,292,446,271.2,446,248.3z M246,391.8L246,391.8
			c0,18.8-15.9,34.2-35.5,34.2c-10.2,0-20-4.3-26.7-11.7c-5-5.5-8-12.3-8.6-19.4c18-7.2,22.7-19.4,26.2-28.6
			c2.9-7.7,4.4-11.6,12.8-13.9c5.3-1.4,8.5-6.9,7.1-12.2c-1.4-5.3-6.9-8.5-12.2-7.1c-18.3,4.9-22.9,17.1-26.3,26.1
			c-3.4,9-5.7,14.9-20,18.8l0,0l0,0c-4.3,1.2-8.6,1.8-12.8,1.8c-17.1,0-32.7-10.4-39.7-26.5c-6.7-15.4-3.8-32,7.8-44.3
			c2.2-2.3,3.1-5.6,2.5-8.7s-2.6-5.8-5.5-7.2c-18-8.4-29.1-25.6-29.1-44.8c0-20.7,12.9-38.9,32.8-46.5c5-1.9,7.6-7.4,5.9-12.5
			c-4.2-12.4-2.1-25.8,5.5-36.7c8-11.4,20.8-18.2,35.1-18.5c17,0,20.8,6.8,26,16.2c4.7,8.6,11.2,20.3,28.6,20.3c5.5,0,10-4.5,10-10
			s-4.5-10-10-10c-5.2,0-6.5-1.6-11.1-9.9c-5.1-9.2-12.4-22.5-33.3-25.8c1-6.3,3.9-12.3,8.4-17.2c6.7-7.4,16.4-11.6,26.6-11.6
			c19.6,0,35.5,15.3,35.5,34.2v135.3c-23.5-2.3-29.3-13-36.5-26.2c-7-12.9-15.8-29-42.1-31.8c-5.5-0.6-10.4,3.4-11,8.9
			s3.4,10.4,8.9,11c15.9,1.7,20.2,9.5,26.7,21.5c2.3,4.3,4.9,8.9,8,13.3c-5.3,5.4-13.2,10.9-22.2,15.4c-4.9,2.5-7,8.5-4.5,13.4
			c1.7,3.5,5.3,5.6,9,5.6c1.5,0,3-0.3,4.4-1c11.2-5.6,20.8-12.4,27.8-19.4c7.6,4.8,17.6,8.4,31.7,9.5v116H246z M397.1,293.2
			c-2.9,1.4-4.9,4-5.5,7.2c-0.6,3.1,0.3,6.4,2.5,8.7c11.6,12.4,14.5,28.9,7.8,44.3c-7,16.1-22.5,26.5-39.7,26.5l0,0
			c-4.2,0-8.5-0.6-12.8-1.8l0,0l0,0c-14.3-3.8-16.6-9.8-20-18.8c-3.4-8.9-8-21.2-26.3-26.1c-5.3-1.4-10.8,1.7-12.2,7.1
			c-1.4,5.3,1.7,10.8,7.1,12.2c8.4,2.2,9.8,6.1,12.8,13.9c3.5,9.2,8.2,21.4,26.2,28.6c-0.7,7.1-3.6,13.9-8.6,19.4
			c-6.7,7.4-16.5,11.7-26.7,11.7c-19.6,0-35.5-15.3-35.5-34.2v-71.6c0-18,9.5-26.9,18.4-29.3c11-3,22.5,2.8,29.4,14.6
			c2.8,4.8,8.9,6.4,13.7,3.7c4.8-2.8,6.4-8.9,3.7-13.7c-11.3-19.6-32.1-29.2-51.9-23.9c-4.8,1.3-9.2,3.4-13.2,6.1v-64.5
			c21,1.8,27.3,9.5,35,18.9c6.8,8.3,14.6,17.8,31.2,23.1c1,0.3,2,0.5,3,0.5c4.2,0,8.2-2.7,9.5-7c1.7-5.3-1.2-10.9-6.5-12.6
			c-11-3.5-15.8-9.3-21.8-16.7c-9.3-11.3-19.7-24.1-50.5-26.3v-73.1c0-18.8,15.9-34.2,35.5-34.2c10.2,0,19.9,4.2,26.6,11.6
			c4.5,4.9,7.4,10.9,8.4,17.2c-20.9,3.3-28.3,16.6-33.3,25.8c-4.6,8.3-5.9,9.9-11.1,9.9c-5.5,0-10,4.5-10,10s4.5,10,10,10
			c17.4,0,23.9-11.7,28.6-20.3c5.2-9.4,8.9-16.2,26-16.2c14.3,0.4,27.1,7.1,35.1,18.5c7.7,10.9,9.7,24.3,5.5,36.7
			c-1.7,5.1,0.9,10.6,5.9,12.5c19.9,7.6,32.8,25.9,32.8,46.5C426,267.5,414.9,284.7,397.1,293.2z"/>
	</g>
</g>
<g>
	<g>
		<path class="st0" d="M256,0c-5.5,0-10,4.5-10,10v20c0,5.5,4.5,10,10,10s10-4.5,10-10V10C266,4.5,261.5,0,256,0z"/>
	</g>
</g>
<g>
	<g>
		<path class="st0" d="M151.7,55.3l-10-17.3c-2.8-4.8-8.9-6.4-13.7-3.7c-4.8,2.8-6.4,8.9-3.7,13.7l10,17.3c1.9,3.2,5.2,5,8.7,5
			c1.7,0,3.4-0.4,5-1.3C152.8,66.2,154.4,60.1,151.7,55.3z"/>
	</g>
</g>
<g>
	<g>
		<path class="st0" d="M65.3,134.3l-17.3-10c-4.8-2.8-10.9-1.1-13.7,3.7c-2.8,4.8-1.1,10.9,3.7,13.7l17.3,10c1.6,0.9,3.3,1.3,5,1.3
			c3.5,0,6.8-1.8,8.7-5C71.7,143.2,70.1,137.1,65.3,134.3z"/>
	</g>
</g>
<g>
	<g>
		<path class="st0" d="M30,246H10c-5.5,0-10,4.5-10,10s4.5,10,10,10h20c5.5,0,10-4.5,10-10S35.5,246,30,246z"/>
	</g>
</g>
<g>
	<g>
		<path class="st0" d="M68.9,364c-2.8-4.8-8.9-6.4-13.7-3.7l-17.3,10c-4.8,2.8-6.4,8.9-3.7,13.7c1.9,3.2,5.2,5,8.7,5
			c1.7,0,3.4-0.4,5-1.3l17.3-10C70.1,374.9,71.7,368.8,68.9,364z"/>
	</g>
</g>
<g>
	<g>
		<path class="st0" d="M148,443.1c-4.8-2.8-10.9-1.1-13.7,3.7l-10,17.3c-2.8,4.8-1.1,10.9,3.7,13.7c1.6,0.9,3.3,1.3,5,1.3
			c3.5,0,6.8-1.8,8.7-5l10-17.3C154.4,451.9,152.8,445.8,148,443.1z"/>
	</g>
</g>
<g>
	<g>
		<path class="st0" d="M256,472c-5.5,0-10,4.5-10,10v20c0,5.5,4.5,10,10,10s10-4.5,10-10v-20C266,476.5,261.5,472,256,472z"/>
	</g>
</g>
<g>
	<g>
		<path class="st0" d="M387.7,464l-10-17.3c-2.8-4.8-8.9-6.4-13.7-3.7c-4.8,2.8-6.4,8.9-3.7,13.7l10,17.3c1.9,3.2,5.2,5,8.7,5
			c1.7,0,3.4-0.4,5-1.3C388.8,474.9,390.4,468.8,387.7,464z"/>
	</g>
</g>
<g>
	<g>
		<path class="st0" d="M474,370.3l-17.3-10c-4.8-2.8-10.9-1.1-13.7,3.7c-2.8,4.8-1.1,10.9,3.7,13.7l17.3,10c1.6,0.9,3.3,1.3,5,1.3
			c3.5,0,6.8-1.8,8.7-5C480.5,379.2,478.8,373.1,474,370.3z"/>
	</g>
</g>
<g>
	<g>
		<path class="st0" d="M502,246h-20c-5.5,0-10,4.5-10,10s4.5,10,10,10h20c5.5,0,10-4.5,10-10S507.5,246,502,246z"/>
	</g>
</g>
<g>
	<g>
		<path class="st0" d="M477.7,128c-2.8-4.8-8.9-6.4-13.7-3.7l-17.3,10c-4.8,2.8-6.4,8.9-3.7,13.7c1.9,3.2,5.2,5,8.7,5
			c1.7,0,3.4-0.4,5-1.3l17.3-10C478.8,138.9,480.5,132.8,477.7,128z"/>
	</g>
</g>
<g>
	<g>
		<path class="st0" d="M384,34.3c-4.8-2.8-10.9-1.1-13.7,3.7l-10,17.3c-2.8,4.8-1.1,10.9,3.7,13.7c1.6,0.9,3.3,1.3,5,1.3
			c3.5,0,6.8-1.8,8.7-5l10-17.3C390.4,43.2,388.8,37.1,384,34.3z"/>
	</g>
</g>
</svg>
