<?xml version="1.0" encoding="utf-8"?>
<!-- Generator: Adobe Illustrator 21.1.0, SVG Export Plug-In . SVG Version: 6.00 Build 0)  -->
<svg version="1.1" id="Слой_1" xmlns="http://www.w3.org/2000/svg" xmlns:xlink="http://www.w3.org/1999/xlink" x="0px" y="0px"
	 viewBox="0 0 512 512" style="enable-background:new 0 0 512 512;" xml:space="preserve">
<style type="text/css">
	.st0{fill:#7E7E7E;}
</style>
<path class="st0" d="M436.4,342.8c-0.9-5.5-6-9.2-11.4-8.3c-5.5,0.9-9.2,6-8.3,11.4c2.2,14.2,2.9,28.7,1.8,43
	c-2.4,33.3-19.2,63.6-46.1,83.3l-6.8,4.9c-13.2,9.7-28.9,14.8-45.3,14.8c-5.9,0-11.9-0.7-17.7-2.1l-26.5-6.3
	c-51.2-12.1-97.9-40.5-131.6-80c-14.9-17.6-21.7-30.3-26.9-43.5c0.4-1.3,0.6-2.8,0.4-4.3c-0.1-0.4-5-43.6,55.9-71.3
	c41.8-19,61.3-51.5,68.1-65.6c45.8,6.3,61.6,19.2,62.7,20.2c2.4,2.6,5.8,3.4,9.2,2.6c0.8-0.2,1.7-0.4,2.5-0.5
	c32-6.7,65.1,9.5,100.6,107.8c2.9,12.9,22.5,11.5,18.8-8.1c-3.7-19.7-43-98.8-59.1-108.4v-0.1c2-6.4,3-13.2,3-20
	c0-1.4-0.1-2.7-0.1-4.1h6.9c5.5,0,10-4.5,10-10s-4.5-10-10-10h-11.3c-2.6-6.6-6.2-12.8-10.6-18.2l4.5-4.5c3.9-3.9,3.9-10.2,0-14.1
	c-3.9-3.9-10.2-3.9-14.1,0l-5.2,5.2c-8.1-5.4-17.5-9-27.5-10.5c13.2-10.6,30.7-15.6,51.9-14.9c2.7,0.1,5.3-0.9,7.3-2.8
	c1.9-1.9,3-4.5,3-7.2V83.4c0-5.2-4-9.5-9.2-10c-1.6-0.1-20.3-1.6-44.7,1.4c-10.9-21.1-26.2-36.7-43.8-45.4l7.1-10.6
	c3.1-4.6,1.8-10.8-2.7-13.9c-4.6-3.1-10.8-1.8-13.9,2.7l-10.1,15.1c-4.3-0.8-8.7-1.2-13.2-1.2c-2.6,0-5.1,0.1-7.7,0.4V10
	c0-5.5-4.5-10-10-10s-10,4.5-10,10v17.1c-9.4,3.8-18.3,9.6-26.4,17.2C194,50,188.6,56.7,183.8,64c-3.8-7.4-11.4-12.5-20.3-12.5
	h-27.1c-12.5,0-22.7,10.2-22.7,22.7v102.2c-5,3.9-9.9,8.5-14.5,13.8c-21.9,25-26.3,57.8-26.1,80.9c0.2,26.1,6.5,52.7,16.5,69.8
	c1.5,4,2.9,7.9,4.2,11.7c6.7,19.3,13.1,37.5,35.7,64c36.4,42.7,86.9,73.5,142.2,86.5l26.5,6.3c7.3,1.7,14.8,2.6,22.2,2.6
	c20.7,0,40.4-6.4,57.1-18.6l6.8-4.9c31.7-23.1,51.5-58.9,54.3-98C439.6,374.6,438.9,358.5,436.4,342.8z M314.4,221.3
	c-4-2.8-10.9-6.8-21.6-10.8c0.8-9.6,3.6-27.8,13-44.2c2.4-0.4,4.9-0.6,7.4-0.6c25.8,0,46.8,21,46.8,46.8c0,4-0.5,7.9-1.5,11.7
	C344.3,219.6,329.1,218.6,314.4,221.3z M364.7,93.1v18.5c-24.8,1.1-45.2,9.3-60.9,24.7c-22,21.5-28.6,51.4-30.6,68.3
	c-9.6-2.4-20.9-4.5-34.4-6.1c-3-2.8-6.1-5.5-9.1-8c0-0.2,0-0.5,0-0.7c0-26.9,8.7-48.5,25.8-64.3C288.2,95.4,343.1,92.8,364.7,93.1z
	 M254.1,41.6c5,0,9.9,0.7,14.8,2.1l0,0c15.9,4.7,30.4,16.8,41,34.5c-23.2,5-48.4,14.5-67.8,32.4c-18.4,17-29.1,39-31.7,65.7
	c-8.2-5.1-16.3-9-24.3-11.7v-57.8c0.2-0.4,0.3-0.8,0.5-1.2C197.7,67.4,224.8,41.6,254.1,41.6z M133.6,74.2c0-1.5,1.2-2.7,2.7-2.7
	h27.1c1.5,0,2.7,1.2,2.7,2.7v86.2c-3.4-0.3-6.7-0.4-10-0.2c-7.8,0.3-15.4,1.9-22.6,4.8V74.2H133.6z M114.1,203.4
	c12.9-14.7,27.4-22.6,43-23.3c19.9-0.9,42.8,9.9,66.4,31.3c-6.1,12-23.1,39.1-57.8,54.9c-38.3,17.4-54.6,41.1-61.6,57.8
	c-0.1,0.3-0.2,0.6-0.3,0.8C91.2,297,84.4,237.3,114.1,203.4z"/>
<path class="st0" d="M199.8,402.2c-4.2-3.5-10.6-2.9-14.1,1.3c-3.5,4.2-2.9,10.6,1.3,14.1c27.1,22.4,59.4,38.6,93.7,46.7
	c0.8,0.2,1.5,0.3,2.3,0.3c4.5,0,8.6-3.1,9.7-7.7c1.3-5.4-2.1-10.8-7.4-12C254.1,437.4,224.5,422.6,199.8,402.2z"/>
</svg>
