<?xml version="1.0" encoding="utf-8"?>
<!-- Generator: Adobe Illustrator 21.1.0, SVG Export Plug-In . SVG Version: 6.00 Build 0)  -->
<svg version="1.1" id="Слой_1" xmlns="http://www.w3.org/2000/svg" xmlns:xlink="http://www.w3.org/1999/xlink" x="0px" y="0px"
	 viewBox="0 0 448 448" style="enable-background:new 0 0 448 448;" xml:space="preserve">
<style type="text/css">
	.st0{fill:#7E7E7E;}
</style>
<path class="st0" d="M214.7,376.1L201.6,448h44.8l-13.1-71.9H214.7z"/>
<path class="st0" d="M124.2,144.4c3.1-5.4,7.7-9.8,13.3-12.6h0.1c1.4-0.7,2.8-1.3,4.2-1.8l0.4-0.1c1.4-0.4,2.7-0.8,4.1-1
	c0.2,0,0.4-0.1,0.7-0.1c1.6-0.3,3.2-0.4,4.8-0.4h1.9c22.4-0.2,44.2-7.6,62-21.2l43.4-33c2.7-2.1,6.4-2.2,9.3-0.3
	c8.4,5.8,16.5,12,24.2,18.6c3.1,2.7,5.9,5.3,8.6,7.9c0.7,0.7,1.4,1.4,2.1,2.1c2.1,2.1,4.1,4.1,5.9,6.2c0.4,0.5,0.9,1,1.4,1.5
	c2.1,2.4,4.1,4.8,5.8,7.1c0.4,0.6,0.8,1.1,1.2,1.7c1.3,1.8,2.5,3.6,3.5,5.4c0.2,0.4,0.5,0.8,0.8,1.1c16.1-18.3,18.4-44.9,5.8-65.8
	c-12.6-20.9-37.3-31.2-61-25.5c-2.9,0.7-6-0.3-7.9-2.6c-31.2-37.2-86.6-42.1-123.8-10.9S93.1,107.2,124.2,144.4z"/>
<path class="st0" d="M256,303.3c-0.7,0.3-1.5,0.5-2.2,0.8c-3.1,1.3-6.3,2.5-9.5,3.5c-1.2,0.4-2.4,0.8-3.6,1.1
	c-4.3,1.2-8.6,2.2-12.9,3l-2.4,0.4c-0.9,0.2-1.8,0.2-2.6,0l-2.4-0.4c-4.4-0.8-8.7-1.8-12.9-3c-1.2-0.3-2.4-0.7-3.6-1.1
	c-3.2-1-6.4-2.2-9.5-3.5c-0.7-0.3-1.5-0.5-2.2-0.8v30.2l20,26.6h23.9l20-26.6V303.3z"/>
<path class="st0" d="M120.1,193.4v-30.2c-0.4-0.4-0.7-0.7-1.1-1.1c-5,2.9-7.7,8.5-6.9,14.2c0.1,9.4,3,18.6,8.3,26.4
	C120.3,199.6,120.1,196.5,120.1,193.4z"/>
<path class="st0" d="M185.4,448l14.2-77.9l-21.9-29.2c-1-1.4-1.6-3.1-1.6-4.8h-24C89,336,36.6,385,32.5,448H185.4z"/>
<path class="st0" d="M188.1,283.4c10.8,6.2,22.6,10.5,34.9,12.6l1.1,0.2l1.1-0.2c12.3-2,24.1-6.2,34.8-12.5
	c27.9-16.1,46.7-44.3,51-76.2c0.7-4.6,1-9.2,1-13.8v-49.1c0-1.2-0.2-2.3-0.5-3.4c-5-12.2-13-22.9-23.3-31.1
	c-1.9-1.7-3.8-3.5-5.9-5.3c-7.1-6.1-13.8-11.1-18.1-14.2l-38.4,29.1c-20.7,15.8-46,24.5-72.1,24.8h-1.8c-1.5,0-3,0.3-4.5,0.7
	c-0.2,0.1-0.5,0.1-0.7,0.2c-1.4,0.5-2.8,1.2-4,2l-0.1,0.1c-1.2,0.9-2.3,1.9-3.2,3.1c-0.1,0.1-0.2,0.2-0.3,0.3
	c-0.9,1.2-1.6,2.5-2.1,3.9c-0.1,0.3-0.2,0.5-0.3,0.8c-0.5,1.4-0.7,2.9-0.8,4.3v0.3v33.4c0,7.1,0.7,14.1,2.2,21
	C144.3,243.4,162.4,268.5,188.1,283.4L188.1,283.4z"/>
<path class="st0" d="M415.5,448c-4.3-62.9-56.5-111.8-119.6-111.9h-24c0,1.7-0.6,3.4-1.6,4.8l-1.2,1.6l-20.7,27.6l14.2,77.9H415.5z"
	/>
<path class="st0" d="M327.9,153.6v40.6c5.1-7.7,7.9-16.6,8-25.8C335.9,160.5,333.4,155.7,327.9,153.6z"/>
</svg>
