<?xml version="1.0" encoding="utf-8"?>
<!-- Generator: Adobe Illustrator 21.1.0, SVG Export Plug-In . SVG Version: 6.00 Build 0)  -->
<svg version="1.1" id="Layer_1" xmlns="http://www.w3.org/2000/svg" xmlns:xlink="http://www.w3.org/1999/xlink" x="0px" y="0px"
	 viewBox="0 0 512 512" style="enable-background:new 0 0 512 512;" xml:space="preserve">
<style type="text/css">
	.st0{fill:#7E7E7E;}
</style>
<g>
	<g>
		<circle class="st0" cx="75.8" cy="67.4" r="38.4"/>
	</g>
</g>
<g>
	<g>
		<path class="st0" d="M483.6,113.8h-50.7c-15.7,0-28.4,13.6-28.4,30.4v42.4l7-1.3l38.1-48.9l-28.2,65.3l-42.4,7.7
			c-0.9-1.7-2.1-3.2-3.6-4.5c-6-4.9-14.9-4.1-19.8,1.9c-7.1,8.6-59.2,72.1-66.5,80.9c-8.1,0-28.9,0-36.7,0
			c-9.1-15.2-50.6-84.5-58.5-97.8c-4-6.7-12.7-8.9-19.3-4.9c-3.9,2.3-6.2,6.2-6.7,10.3l-46.4,0.3L89.9,149l33.6,29.4l0.7,0
			l-7.1-38.8c-2.1-11.4-11.3-19.6-22-19.6c-13.8,0-23.5,0-38.8,0c-10.7,0-19.9,8.2-22,19.6L0.2,326.8c-0.6,3,0.2,6.2,2,8.5
			s4.5,3.8,7.4,3.8c5.9,0,13.7,0,22.6,0v132.6c0,12.3,10,22.3,22.3,22.3c3,0,5.9-0.6,8.5-1.7c-4.1-5.8-6.6-12.9-6.6-20.6V339.2
			c4.4,0,8.9,0,13.4,0v132.6c0,12.3,10,22.3,22.3,22.3s22.3-10,22.3-22.3V339.2c4.1,0,24.7,0,27.8,0c2.9,0,5.6-1.4,7.4-3.8
			s2.5-5.5,2-8.5L137,248c-18.9,0.1-19.9,0.1-31.8,0.2c-10.1,0.1-18.7-6.4-21.8-15.4L61,168.4L97.8,223c3.2,4.8,8.7,7.7,14.4,7.7
			c0,0,0.1,0,0.1,0c75.8-0.5,70.3-0.3,72.6-0.7c4.6,7.7,42.7,71.4,47.4,79.2c0,0,0.1,0.1,0.1,0.1v87.7l-17.8,29.7l-23.6-34.2
			c-5.3-7.7-15.9-9.6-23.5-4.3s-9.6,15.9-4.3,23.5l38.6,55.8c3.2,4.6,8.4,7.3,13.9,7.3c0.2,0,0.4,0,0.5,0c5.7-0.2,11-3.3,14-8.2
			l31.2-52h15l14.6,48.2c1.7,5.6,6.1,9.9,11.8,11.4c5.6,1.5,11.6,0.1,15.9-3.9l60.4-55.8c6.9-6.3,7.3-17,1-23.9s-17-7.3-23.9-1
			l-40.6,37.5l-8.4-27.5v-89.2c5.7-6.9,44.2-53.8,49.7-60.5c0,0,30.7-3.9,81.2-13.1c5-0.9,9.4-3.8,12.2-7.9
			c1.6-2.4-1.2,3.6,32.8-75.2c-14.7,82.1-13.5,76.5-14.7,79.2c-4.9,11.3-15,19.3-27.1,21.5l-37.1,6.7l-0.2,210.1
			c0,13.1,10.6,23.7,23.7,23.7c3.5,0,6.9-0.8,9.9-2.2c-3.7-6.3-5.9-13.6-5.9-21.5V300.2H450v171.1c0,13.1,10.6,23.7,23.7,23.7
			c13.1,0,23.7-10.6,23.7-23.7V298.7c8.5-3.3,14.6-11.5,14.6-21.2v-26.1V144.2C512,127.4,499.3,113.8,483.6,113.8z"/>
	</g>
</g>
<g>
	<g>
		<circle class="st0" cx="458" cy="59.1" r="42.1"/>
	</g>
</g>
<g>
	<g>
		<circle class="st0" cx="269.6" cy="241.8" r="34.9"/>
	</g>
</g>
</svg>
