<?xml version="1.0" encoding="utf-8"?>
<!-- Generator: Adobe Illustrator 21.1.0, SVG Export Plug-In . SVG Version: 6.00 Build 0)  -->
<svg version="1.1" id="Capa_1" xmlns="http://www.w3.org/2000/svg" xmlns:xlink="http://www.w3.org/1999/xlink" x="0px" y="0px"
	 viewBox="0 0 512 512" style="enable-background:new 0 0 512 512;" xml:space="preserve">
<style type="text/css">
	.st0{fill:#FFFFFF;}
</style>
<g>
	<g>
		<path class="st0" d="M256,0C114.8,0,0,114.8,0,256s114.8,256,256,256s256-114.8,256-256S397.2,0,256,0z M343.5,121.6
			c3.6-4.7,10.3-5.7,14.9-2.1l42.7,32c4.7,3.5,5.7,10.2,2.2,14.9c-2.1,2.8-5.3,4.3-8.6,4.3c-2.2,0-4.5-0.7-6.4-2.1l-42.7-32
			C340.9,133,339.9,126.3,343.5,121.6z M352,170.7c17.6,0,32,14.4,32,32s-14.4,32-32,32s-32-14.4-32-32S334.4,170.7,352,170.7z
			 M117.3,170.7c-3.9,0-7.7-2.2-9.5-5.9c-2.6-5.3-0.5-11.7,4.8-14.3l42.7-21.3c5.3-2.6,11.7-0.5,14.3,4.8c2.6,5.3,0.5,11.7-4.8,14.3
			l-42.7,21.3C120.6,170.3,118.9,170.7,117.3,170.7z M160,170.7c17.6,0,32,14.4,32,32s-14.4,32-32,32s-32-14.4-32-32
			S142.4,170.7,160,170.7z M394.7,341.3c-12,0-22.4-6.7-27.8-16.6l-50.1,8.4c26.2,11.7,48.9,30.7,65,55.8c3.2,5,1.7,11.6-3.2,14.7
			c-1.8,1.2-3.8,1.7-5.8,1.7c-3.5,0-6.9-1.7-9-4.9c-23.7-37-64-59.1-107.8-59.1s-84,22.1-107.8,59.1c-3.2,5-9.8,6.4-14.7,3.2
			c-4.9-3.2-6.4-9.8-3.2-14.7C158,345.8,204.9,320,256,320c2.7,0,5.3,0.4,8,0.5c0.3-0.1,0.6-0.3,0.9-0.4l98.3-16.4
			c2.7-15,15.7-26.4,31.4-26.4c17.6,0,32,14.4,32,32C426.7,327,412.3,341.3,394.7,341.3z"/>
	</g>
</g>
</svg>
