<?xml version="1.0" encoding="utf-8"?>
<!-- Generator: Adobe Illustrator 21.1.0, SVG Export Plug-In . SVG Version: 6.00 Build 0)  -->
<svg version="1.1" id="Layer_1" xmlns="http://www.w3.org/2000/svg" xmlns:xlink="http://www.w3.org/1999/xlink" x="0px" y="0px"
	 viewBox="0 0 512 512" style="enable-background:new 0 0 512 512;" xml:space="preserve">
<style type="text/css">
	.st0{fill:#7E7E7E;}
</style>
<g transform="translate(0 -1)">
	<g>
		<g>
			<rect x="247.5" y="1" class="st0" width="17.1" height="34.1"/>
			<path class="st0" d="M213.2,52.2H167c-2.6,10.7-4.2,25-4.7,42.7h8.4C202.9,94.9,212,86.6,213.2,52.2z"/>
			<path class="st0" d="M341.4,94.9h8.3c-0.5-17.6-2.2-31.9-5-42.7h-45.8C300,86.6,309.2,94.9,341.4,94.9z"/>
			<path class="st0" d="M230.4,1h-42.7c-3.9,0-7.3,2.7-8.3,6.5l-6.9,27.7h57.9L230.4,1L230.4,1z"/>
			<path class="st0" d="M341.4,111.9c-46.9,0-58.3-20.9-59.6-59.7h-51.5c-1.3,38.8-12.7,59.7-59.6,59.7h-8.5
				c0.2,30,2.9,67.5,8.2,111.2c0.1,2.4,8.5,239.3,8.5,281.3c0,4.7,3.8,8.5,8.5,8.5h42.7c4.7,0,8.5-3.8,8.5-8.5
				c0-2.3,0.1-230,8.5-272c3-15.1,6-30,8.6-44c2.6,14.2,5.6,29.2,8.7,44.6c8.3,41.4,8.4,269.1,8.4,271.4c0,4.7,3.8,8.5,8.5,8.5h42.7
				c4.7,0,8.5-3.8,8.5-8.5c0-42,8.4-278.9,8.5-280.5c5.7-44.1,8.7-81.8,8.9-112C349.8,111.9,341.4,111.9,341.4,111.9z"/>
			<path class="st0" d="M332.6,7.5c-0.9-3.8-4.4-6.5-8.3-6.5h-42.7v34.1h57.9L332.6,7.5z"/>
		</g>
	</g>
</g>
</svg>
